<svg width="310" height="355" fill="none" xmlns="http://www.w3.org/2000/svg"><path d="M249.389.321c-.357 0-.713.008-1.069.024H23.666C11.272-.232.757 9.347.18 21.741c-.017.356-.025.713-.024 1.07v282.515c0 15.747 18.777 23.921 30.302 13.19a13.583 13.583 0 0 1 17.763 0l6.145 5.498c19.076 17.068 47.961 16.973 66.924-.22l5.821-5.278a14.106 14.106 0 0 1 17.763 0l5.822 5.278c18.963 17.193 47.848 17.288 66.923.22l6.145-5.498a13.583 13.583 0 0 1 17.763 0c11.526 10.731 30.302 2.557 30.302-13.19V22.81c.014-12.407-10.033-22.476-22.44-22.489zM71.209 78.712h66.873a7.837 7.837 0 0 1 0 15.674H71.209a7.837 7.837 0 0 1 0-15.674zm129.568 151.51H71.209a7.837 7.837 0 0 1 0-15.674h129.567a7.837 7.837 0 0 1 .001 15.674zm0-67.918H71.209a7.837 7.837 0 0 1 0-15.674h129.567a7.837 7.837 0 0 1 .001 15.674z" fill="#84ADEE"/><path d="M285.502 322.8c14.942-14.942 14.942-39.167 0-54.108-14.941-14.942-39.166-14.942-54.108 0-14.941 14.941-14.941 39.166 0 54.108 14.942 14.941 39.167 14.941 54.108 0z" fill="#F9191F" stroke="#fff" stroke-width="5"/><path fill-rule="evenodd" clip-rule="evenodd" d="M258.458 306.537c-.794 0-1.473-.677-1.611-1.609l-4.059-27.379c-.51-3.448 1.717-6.609 4.657-6.609h2.024c2.939 0 5.167 3.161 4.657 6.609l-4.06 27.379c-.135.932-.815 1.609-1.608 1.609zM262.172 316.836a3.721 3.721 0 0 0-3.714-3.713 3.721 3.721 0 0 0-3.714 3.713 3.721 3.721 0 0 0 3.714 3.714 3.72 3.72 0 0 0 3.714-3.714z" fill="#E6E9ED"/></svg>