<svg version="1.1" id="Layer_1" xmlns="http://www.w3.org/2000/svg" xmlns:xlink="http://www.w3.org/1999/xlink" x="0px" y="0px"
	 viewBox="0 0 23.232 20" xml:space="preserve">
<style type="text/css">
	.st0{fill-rule:evenodd;clip-rule:evenodd;fill:#FFFFFF;}
	.st1{fill-rule:evenodd;clip-rule:evenodd;}
	.st2{fill:#CC0066;}
	.svg-background{enable-background:new 0 0 23.232 20;}
</style>
<rect class="svg-background" width="100%" height="100%" fill="none"/>
<path class="st0" d="M1.51,0.408c-0.623,0-1.123,0.496-1.123,1.115v16.955c0,0.618,0.5,1.115,1.123,1.115h10.474
	c7,0,10.86-3.414,10.86-9.614c0-8.325-6.807-9.571-10.86-9.571H1.51z"/>
<path class="st1" d="M11.979,20H1.659C0.743,20,0,19.262,0,18.353V1.647C0,0.738,0.743,0,1.659,0h10.32
	c9.792,0,11.253,6.255,11.253,9.979C23.232,16.439,19.23,20,11.979,20z M1.659,0.549c-0.614,0-1.106,0.489-1.106,1.098v16.705
	c0,0.609,0.493,1.098,1.106,1.098h10.32c6.897,0,10.7-3.363,10.7-9.472c0-8.202-6.707-9.429-10.7-9.429H1.659z M3.44,11.36
	c0.893,0,1.616-0.718,1.616-1.604S4.333,8.151,3.44,8.151S1.824,8.869,1.824,9.755S2.547,11.36,3.44,11.36z M2.213,15.401
	c0,1.339,1.089,2.428,2.446,2.428h0.009v-4.324c0-0.678-0.553-1.218-1.227-1.218c-0.683,0-1.227,0.549-1.227,1.218V15.401z"/>
<path class="st2" d="M6.327,3.26v14.569h6.387c5.799,0,8.315-3.252,8.315-7.851c0-4.402-2.515-7.816-8.315-7.816H7.433
	C6.819,2.162,6.327,2.66,6.327,3.26z"/>
<path class="st0" d="M9.205,8.117C9.006,8.048,8.799,8.014,8.574,8.014V8.005H7.079v3.483h1.513c0.268,0,0.501-0.051,0.7-0.137
	c0.199-0.094,0.363-0.215,0.493-0.369c0.13-0.155,0.225-0.343,0.294-0.558c0.061-0.214,0.095-0.446,0.095-0.704
	c0-0.292-0.043-0.54-0.121-0.755C9.965,8.76,9.853,8.58,9.715,8.434C9.568,8.297,9.403,8.185,9.205,8.117z M8.85,10.802
	c-0.112,0.034-0.216,0.051-0.328,0.051v0.009H7.839V8.666h0.553c0.19,0,0.346,0.026,0.475,0.077c0.13,0.052,0.233,0.137,0.311,0.232
	c0.078,0.094,0.138,0.223,0.173,0.36c0.035,0.137,0.052,0.3,0.052,0.472c0,0.197-0.026,0.352-0.078,0.489
	c-0.052,0.137-0.121,0.24-0.199,0.326C9.049,10.708,8.954,10.768,8.85,10.802z M13.293,8.657V8.014V8.005h-2.619v3.483h2.662v-0.643
	h-1.893V9.996h1.703V9.404h-1.703V8.657H13.293z M15.938,8.014l1.314,3.483h-0.804l-0.268-0.772h-1.314l-0.276,0.772h-0.778
	l1.322-3.483H15.938z M15.981,10.15L15.54,8.872h-0.009l-0.458,1.278H15.981z M18.504,10.854v-2.84h-0.769v3.483h2.48v-0.644H18.504
	z"/>
</svg>
